# File created by Blade
# Date/Time:  Thu Jan 22 18:25:17 2015
#---------------------------------------------------------
:version 1.10
:name HOM
:units
  mass 1.0
  length 1.000000
  angle deg
:documentation
     Acclaim Skeleton File
:root
   axis xyz
   order TX TY TZ RX RY RZ
   position 0.000000 0.000000 0.000000
   orientation 0 0 0
:bonedata
   begin
      id 1
      name RightUpLeg_dum
      direction -1.000000 0.000000 0.000000
      length 4.478084
      axis 0.0 0.0 0.0 xyz
   end
   begin
      id 2
      name LeftUpLeg_dum
      direction 1.000000 0.000000 0.000000
      length 4.478084
      axis 0.0 0.0 0.0 xyz
   end
   begin
      id 3
      name Spine_dum
      direction 0.000000 1.000000 0.000000
      length 6.068208
      axis 0.0 0.0 0.0 xyz
   end
   begin
      id 4
      name RightUpLeg
      direction 0.000000 -1.000000 0.000000
      length 16.405774
      axis 0.0 0.0 0.0 xyz
      dof rx ry rz
   end
   begin
      id 5
      name RightLeg
      direction 0.000000 -1.000000 0.000000
      length 14.644143
      axis 0.0 0.0 0.0 xyz
      dof rx ry rz
   end
   begin
      id 6
      name RightFoot
      direction 0.000000 -0.258819 0.965926
      length 5.806150
      axis 15.0 0.0 0.0 xyz
      dof rx ry rz
   end
   begin
      id 7
      name RightToeBase
      direction 0.000000 0.000000 1.000000
      length 2.952750
      axis 0.0 0.0 0.0 xyz
      dof rx ry rz
   end
   begin
      id 8
      name LeftUpLeg
      direction 0.000000 -1.000000 0.000000
      length 16.405774
      axis 0.0 0.0 0.0 xyz
      dof rx ry rz
   end
   begin
      id 9
      name LeftLeg
      direction 0.000000 -1.000000 0.000000
      length 14.644143
      axis 0.0 0.0 0.0 xyz
      dof rx ry rz
   end
   begin
      id 10
      name LeftFoot
      direction 0.000000 -0.258819 0.965926
      length 5.806150
      axis 15.0 0.0 0.0 xyz
      dof rx ry rz
   end
   begin
      id 11
      name LeftToeBase
      direction 0.000000 0.000000 1.000000
      length 2.952750
      axis 0.0 0.0 0.0 xyz
      dof rx ry rz
   end
   begin
      id 12
      name Spine
      direction 0.000000 1.000000 0.000000
      length 0.000000
      axis 0.0 0.0 0.0 xyz
      dof rx ry rz
   end
   begin
      id 13
      name Spine_dum1
      direction 0.000000 1.000000 0.000000
      length 10.013923
      axis 0.0 0.0 0.0 xyz
   end
   begin
      id 14
      name Spine_dum2
      direction 0.000000 1.000000 0.000000
      length 10.013923
      axis 0.0 0.0 0.0 xyz
   end
   begin
      id 15
      name Spine_dum3
      direction 0.000000 1.000000 0.000000
      length 15.777476
      axis 0.0 0.0 0.0 xyz
   end
   begin
      id 16
      name RightShoulder
      direction -1.000000 0.000000 0.000000
      length 7.190220
      axis 0.0 0.0 90.0 xyz
      dof rx ry rz
   end
   begin
      id 17
      name RightArm
      direction -1.000000 0.000000 0.000000
      length 10.177469
      axis 0.0 0.0 90.0 xyz
      dof rx ry rz
   end
   begin
      id 18
      name RightForeArm
      direction -1.000000 0.000000 0.000000
      length 8.392114
      axis 0.0 0.0 90.0 xyz
      dof ry rz rx
   end
   begin
      id 19
      name RightHand
      direction -1.000000 0.000000 0.000000
      length 0.000000
      axis 0.0 0.0 90.0 xyz
      dof rx ry rz
   end
   begin
      id 20
      name RightHand_dum1
      direction -1.000000 0.000000 0.000000
      length 3.937000
      axis 0.0 0.0 90.0 xyz
   end
   begin
      id 21
      name RightHand_dum2
      direction 0.000000 0.000000 0.000000
      length 0.000000
      axis 0.0 0.0 90.0 xyz
   end
   begin
      id 22
      name RightHandThumb1
      direction 0.000000 0.000000 1.000000
      length 3.937000
      axis 0.0 0.0 90.0 xyz
      dof rx rz ry
   end
   begin
      id 23
      name LeftShoulder
      direction 1.000000 0.000000 0.000000
      length 7.190220
      axis 0.0 0.0 -90.0 xyz
      dof rx ry rz
   end
   begin
      id 24
      name LeftArm
      direction 1.000000 0.000000 0.000000
      length 10.177469
      axis 0.0 0.0 -90.0 xyz
      dof rx ry rz
   end
   begin
      id 25
      name LeftForeArm
      direction 1.000000 0.000000 0.000000
      length 8.392114
      axis 0.0 0.0 -90.0 xyz
      dof ry rz rx
   end
   begin
      id 26
      name LeftHand
      direction 1.000000 0.000000 0.000000
      length 0.000000
      axis 0.0 0.0 -90.0 xyz
      dof rx ry rz
   end
   begin
      id 27
      name LeftHand_dum1
      direction 1.000000 0.000000 0.000000
      length 3.937000
      axis 0.0 0.0 -90.0 xyz
   end
   begin
      id 28
      name LeftHand_dum2
      direction 0.000000 0.000000 0.000000
      length 0.000000
      axis 0.0 0.0 -90.0 xyz
   end
   begin
      id 29
      name LeftHandThumb1
      direction 0.000000 0.000000 1.000000
      length 3.937000
      axis 0.0 0.0 -90.0 xyz
      dof rx rz ry
   end
   begin
      id 30
      name Head
      direction 0.000000 1.000000 0.000000
      length 4.527550
      axis 0.0 0.0 0.0 xyz
      dof rx ry rz
   end
:hierarchy
   begin
      root RightUpLeg_dum LeftUpLeg_dum Spine_dum
      RightUpLeg_dum RightUpLeg
      LeftUpLeg_dum LeftUpLeg
      Spine_dum Spine
      RightUpLeg RightLeg
      RightLeg RightFoot
      RightFoot RightToeBase
      LeftUpLeg LeftLeg
      LeftLeg LeftFoot
      LeftFoot LeftToeBase
      Spine Spine_dum1 Spine_dum2 Spine_dum3
      Spine_dum1 RightShoulder
      Spine_dum2 LeftShoulder
      Spine_dum3 Head
      RightShoulder RightArm
      RightArm RightForeArm
      RightForeArm RightHand
      RightHand RightHand_dum1 RightHand_dum2
      RightHand_dum2 RightHandThumb1
      LeftShoulder LeftArm
      LeftArm LeftForeArm
      LeftForeArm LeftHand
      LeftHand LeftHand_dum1 LeftHand_dum2
      LeftHand_dum2 LeftHandThumb1
   end

# File created by Blade
# Date/Time:  Thu Jan 22 18:25:10 2015
# Frame Rate: 120.000 fps
#------------------------------------------------------
:FULLY-SPECIFIED
:DEGREES
112
root -2.950502 33.103397 -0.412680 9.976142 -3.300877 2.213441
RightUpLeg -3.837572 -3.914157 -1.381207
RightLeg -0.011473 -0.000000 0.000000
RightFoot -11.590506 -3.490195 2.953620
RightToeBase 5.741690 -0.000000 -0.000000
LeftUpLeg -4.020121 4.120868 0.823335
LeftLeg 2.433453 -0.000000 -0.000000
LeftFoot -12.120233 3.486491 -9.554434
LeftToeBase 8.623099 -0.000000 -0.000000
Spine -10.752254 -1.969046 -0.920550
RightShoulder -19.329440 -17.791933 -24.501855
RightArm 21.467578 29.697851 40.233021
RightForeArm -10.661724 -0.000000 11.077955
RightHand 6.466596 -0.000000 7.805205
RightHandThumb1 -24.326973 -0.000000 -32.862282
LeftShoulder -24.251823 8.296258 30.055671
LeftArm 15.506234 -29.751159 -35.557088
LeftForeArm 30.100393 -0.000000 2.375964
LeftHand -5.997991 -0.000000 -5.948464
LeftHandThumb1 -26.253704 0.000000 33.147579
Head -1.464567 3.419346 -0.053163
113
root -2.950903 33.103614 -0.417649 9.967188 -3.275453 2.208036
RightUpLeg -3.855132 -3.883294 -1.376192
RightLeg 0.039682 -0.000000 -0.000000
RightFoot -11.615772 -3.523146 2.960580
RightToeBase 5.749175 -0.000000 -0.000000
LeftUpLeg -4.034264 4.086486 0.833528
LeftLeg 2.457667 -0.000000 -0.000000
LeftFoot -12.127328 3.491104 -9.549352
LeftToeBase 8.616670 -0.000000 -0.000000
Spine -10.730654 -1.972136 -0.917758
RightShoulder -19.341112 -17.802486 -24.489702
RightArm 21.471500 29.690475 40.219668
RightForeArm -10.642353 0.000000 11.065357
RightHand 6.492584 0.000000 7.794154
RightHandThumb1 -24.326973 -0.000000 -32.862282
LeftShoulder -24.230692 8.267536 30.065214
LeftArm 15.496109 -29.798102 -35.544350
LeftForeArm 30.201380 -0.000000 2.394351
LeftHand -5.973436 -0.000000 -5.935195
LeftHandThumb1 -26.253704 0.000000 33.147579
Head -1.466586 3.440988 -0.051964
114
root -2.951016 33.103991 -0.423569 9.964680 -3.252150 2.210140
RightUpLeg -3.880058 -3.832626 -1.377063
RightLeg 0.087168 -0.000000 -0.000000
RightFoot -11.643957 -3.599894 2.958334
RightToeBase 5.743586 -0.000000 -0.000000
LeftUpLeg -4.051779 4.038122 0.835845
LeftLeg 2.468535 -0.000000 -0.000000
LeftFoot -12.125890 3.525027 -9.525349
LeftToeBase 8.628359 -0.000000 -0.000000
Spine -10.714558 -1.975803 -0.925922
RightShoulder -19.346117 -17.787520 -24.489407
RightArm 21.444964 29.657884 40.201761
RightForeArm -10.619232 -0.000000 11.066484
RightHand 6.490493 -0.000000 7.796175
RightHandThumb1 -24.326973 -0.000000 -32.862282
LeftShoulder -24.233680 8.279363 30.073466
LeftArm 15.539716 -29.790347 -35.557611
LeftForeArm 30.236255 -0.000000 2.408610
LeftHand -6.015486 -0.000000 -5.972828
LeftHandThumb1 -26.253704 0.000000 33.147579
Head -1.472115 3.462311 -0.048172
115
root -2.951139 33.104103 -0.428943 9.960382 -3.238278 2.210913
RightUpLeg -3.902127 -3.807081 -1.377880
RightLeg 0.131461 -0.000000 -0.000000
RightFoot -11.667241 -3.635624 2.961022
RightToeBase 5.776812 -0.000000 -0.000000
LeftUpLeg -4.066583 4.005124 0.838283
LeftLeg 2.483695 -0.000000 -0.000000
LeftFoot -12.128533 3.545881 -9.523237
LeftToeBase 8.618642 -0.000000 -0.000000
Spine -10.696454 -1.975177 -0.933230
RightShoulder -19.346327 -17.784748 -24.488833
RightArm 21.437048 29.658493 40.205376
RightForeArm -10.643059 -0.000000 11.054662
RightHand 6.502177 0.000000 7.791094
RightHandThumb1 -24.326973 -0.000000 -32.862282
LeftShoulder -24.232607 8.292808 30.076334
LeftArm 15.554035 -29.716148 -35.530922
LeftForeArm 30.188678 0.000000 2.414768
LeftHand -5.989632 -0.000000 -6.036857
LeftHandThumb1 -26.253704 0.000000 33.147579
Head -1.477024 3.489996 -0.042109
116
root -2.952848 33.104228 -0.434410 9.955060 -3.223971 2.209783
RightUpLeg -3.921232 -3.794407 -1.372894
RightLeg 0.172203 -0.000000 -0.000000
RightFoot -11.688903 -3.643896 2.981701
RightToeBase 5.778982 -0.000000 -0.000000
LeftUpLeg -4.079006 4.006883 0.843932
LeftLeg 2.495860 -0.000000 -0.000000
LeftFoot -12.128821 3.529502 -9.520155
LeftToeBase 8.623569 -0.000000 -0.000000
Spine -10.677650 -1.969594 -0.948912
RightShoulder -19.353041 -17.783657 -24.481403
RightArm 21.416485 29.652741 40.207406
RightForeArm -10.630347 -0.000000 11.057731
RightHand 6.510859 -0.000000 7.821860
RightHandThumb1 -24.326973 -0.000000 -32.862282
LeftShoulder -24.211756 8.278459 30.104064
LeftArm 15.544917 -29.676058 -35.512432
LeftForeArm 30.216418 -0.000000 2.419185
LeftHand -5.963905 -0.000000 -6.128748
LeftHandThumb1 -26.253704 0.000000 33.147579
Head -1.483110 3.509477 -0.027558
117
root -2.953868 33.104783 -0.439956 9.950643 -3.213979 2.208407
RightUpLeg -3.951605 -3.791944 -1.368444
RightLeg 0.230954 -0.000000 -0.000000
RightFoot -11.713030 -3.646303 2.982156
RightToeBase 5.749744 -0.000000 -0.000000
LeftUpLeg -4.090557 3.996393 0.849729
LeftLeg 2.504347 -0.000000 -0.000000
LeftFoot -12.120666 3.523355 -9.523521
LeftToeBase 8.628462 -0.000000 -0.000000
Spine -10.661426 -1.968753 -0.956087
RightShoulder -19.349133 -17.772047 -24.491550
RightArm 21.398298 29.637704 40.216931
RightForeArm -10.640704 -0.000000 11.052369
RightHand 6.503281 -0.000000 7.853432
RightHandThumb1 -24.326973 -0.000000 -32.862282
LeftShoulder -24.196453 8.271685 30.107287
LeftArm 15.536659 -29.644392 -35.480578
LeftForeArm 30.217201 -0.000000 2.417870
LeftHand -5.939969 -0.000000 -6.207013
LeftHandThumb1 -26.253704 0.000000 33.147579
Head -1.478454 3.542632 -0.022702
118
root -2.954871 33.105067 -0.444754 9.942214 -3.212432 2.209209
RightUpLeg -3.982861 -3.802443 -1.365690
RightLeg 0.297823 -0.000000 -0.000000
RightFoot -11.748954 -3.641654 2.964293
RightToeBase 5.777642 -0.000000 -0.000000
LeftUpLeg -4.092725 4.010231 0.851835
LeftLeg 2.508332 -0.000000 -0.000000
LeftFoot -12.112175 3.500546 -9.515654
LeftToeBase 8.661659 -0.000000 -0.000000
Spine -10.641093 -1.964453 -0.967735
RightShoulder -19.347573 -17.786695 -24.492278
RightArm 21.402975 29.639115 40.239060
RightForeArm -10.631680 -0.000000 11.045369
RightHand 6.501444 0.000000 7.881881
RightHandThumb1 -24.326973 -0.000000 -32.862282
LeftShoulder -24.193308 8.269369 30.113657
LeftArm 15.548697 -29.606135 -35.462726
LeftForeArm 30.218221 -0.000000 2.407980
LeftHand -5.936090 -0.000000 -6.294987
LeftHandThumb1 -26.253704 0.000000 33.147579
Head -1.475876 3.586279 -0.017221
119
root -2.956169 33.105596 -0.450024 9.939178 -3.205812 2.207340
RightUpLeg -4.016364 -3.817462 -1.360276
RightLeg 0.360305 -0.000000 -0.000000
RightFoot -11.777555 -3.628070 2.956221
RightToeBase 5.848646 -0.000000 -0.000000
LeftUpLeg -4.099645 3.998531 0.859188
LeftLeg 2.508458 -0.000000 -0.000000
LeftFoot -12.106944 3.498687 -9.530471
LeftToeBase 8.652905 -0.000000 -0.000000
Spine -10.627891 -1.953921 -0.979168
RightShoulder -19.347508 -17.764947 -24.497566
RightArm 21.368987 29.600128 40.227028
RightForeArm -10.614409 -0.000000 11.030576
RightHand 6.505994 -0.000000 7.938943
RightHandThumb1 -24.326973 -0.000000 -32.862282
LeftShoulder -24.183117 8.271573 30.122447
LeftArm 15.582748 -29.591180 -35.469259
LeftForeArm 30.208014 -0.000000 2.371553
LeftHand -5.904931 -0.000000 -6.318410
LeftHandThumb1 -26.253704 0.000000 33.147579
Head -1.472675 3.608889 -0.005695
120
root -2.958233 33.105819 -0.455515 9.943444 -3.207998 2.204240
RightUpLeg -4.065090 -3.852814 -1.349865
RightLeg 0.431649 -0.000000 -0.000000
RightFoot -11.799706 -3.594587 2.938880
RightToeBase 5.800818 -0.000000 -0.000000
LeftUpLeg -4.118641 4.023275 0.864654
LeftLeg 2.519813 -0.000000 -0.000000
LeftFoot -12.107777 3.468249 -9.521153
LeftToeBase 8.659241 -0.000000 -0.000000
Spine -10.621260 -1.937582 -0.991194
RightShoulder -19.360309 -17.783979 -24.487825
RightArm 21.375448 29.595935 40.239921
RightForeArm -10.615810 -0.000000 11.033637
RightHand 6.493329 -0.000000 8.032162
RightHandThumb1 -24.326973 -0.000000 -32.862282
LeftShoulder -24.158384 8.230327 30.143754
LeftArm 15.550449 -29.546966 -35.433823
LeftForeArm 30.218572 -0.000000 2.372885
LeftHand -5.877287 -0.000000 -6.443646
LeftHandThumb1 -26.253704 0.000000 33.147579
Head -1.476263 3.613036 -0.007512
